<?xml version="1.0" encoding="UTF-8" standalone="no"?>
<!DOCTYPE svg PUBLIC "-//W3C//DTD SVG 1.1//EN"
 "http://www.w3.org/Graphics/SVG/1.1/DTD/svg11.dtd">
<!-- Generated by graphviz version 2.43.0 (0)
 -->
<!-- Title: %3 Pages: 1 -->
<svg width="357pt" height="260pt"
 viewBox="0.00 0.00 356.60 260.00" xmlns="http://www.w3.org/2000/svg" xmlns:xlink="http://www.w3.org/1999/xlink">
<g id="graph0" class="graph" transform="scale(1 1) rotate(0) translate(4 256)">
<title>%3</title>
<polygon fill="white" stroke="transparent" points="-4,4 -4,-256 352.6,-256 352.6,4 -4,4"/>
<!-- 6 -->
<g id="node1" class="node">
<title>6</title>
<ellipse fill="none" stroke="black" cx="213.6" cy="-234" rx="27" ry="18"/>
<text text-anchor="middle" x="213.6" y="-230.3" font-family="Times,serif" font-size="14.00">6</text>
</g>
<!-- 12 -->
<g id="node2" class="node">
<title>12</title>
<ellipse fill="none" stroke="black" cx="177.6" cy="-162" rx="27" ry="18"/>
<text text-anchor="middle" x="177.6" y="-158.3" font-family="Times,serif" font-size="14.00">12</text>
</g>
<!-- 6&#45;&#45;12 -->
<g id="edge1" class="edge">
<title>6&#45;&#45;12</title>
<path fill="none" stroke="black" d="M205.25,-216.76C199.43,-205.46 191.71,-190.44 185.9,-179.15"/>
</g>
<!-- 24 -->
<g id="node3" class="node">
<title>24</title>
<ellipse fill="none" stroke="black" cx="249.6" cy="-162" rx="27" ry="18"/>
<text text-anchor="middle" x="249.6" y="-158.3" font-family="Times,serif" font-size="14.00">24</text>
</g>
<!-- 6&#45;&#45;24 -->
<g id="edge2" class="edge">
<title>6&#45;&#45;24</title>
<path fill="none" stroke="black" d="M221.95,-216.76C227.76,-205.46 235.49,-190.44 241.29,-179.15"/>
</g>
<!-- 98 -->
<g id="node4" class="node">
<title>98</title>
<ellipse fill="none" stroke="black" cx="103.6" cy="-90" rx="27" ry="18"/>
<text text-anchor="middle" x="103.6" y="-86.3" font-family="Times,serif" font-size="14.00">98</text>
</g>
<!-- 12&#45;&#45;98 -->
<g id="edge3" class="edge">
<title>12&#45;&#45;98</title>
<path fill="none" stroke="black" d="M162.62,-146.83C149.78,-134.69 131.38,-117.28 118.55,-105.14"/>
</g>
<!-- 41 -->
<g id="node5" class="node">
<title>41</title>
<ellipse fill="none" stroke="black" cx="177.6" cy="-90" rx="27" ry="18"/>
<text text-anchor="middle" x="177.6" y="-86.3" font-family="Times,serif" font-size="14.00">41</text>
</g>
<!-- 12&#45;&#45;41 -->
<g id="edge4" class="edge">
<title>12&#45;&#45;41</title>
<path fill="none" stroke="black" d="M177.6,-143.7C177.6,-132.85 177.6,-118.92 177.6,-108.1"/>
</g>
<!-- 58 -->
<g id="node6" class="node">
<title>58</title>
<ellipse fill="none" stroke="black" cx="249.6" cy="-90" rx="27" ry="18"/>
<text text-anchor="middle" x="249.6" y="-86.3" font-family="Times,serif" font-size="14.00">58</text>
</g>
<!-- 24&#45;&#45;58 -->
<g id="edge5" class="edge">
<title>24&#45;&#45;58</title>
<path fill="none" stroke="black" d="M249.6,-143.7C249.6,-132.85 249.6,-118.92 249.6,-108.1"/>
</g>
<!-- 74 -->
<g id="node7" class="node">
<title>74</title>
<ellipse fill="none" stroke="black" cx="321.6" cy="-90" rx="27" ry="18"/>
<text text-anchor="middle" x="321.6" y="-86.3" font-family="Times,serif" font-size="14.00">74</text>
</g>
<!-- 24&#45;&#45;74 -->
<g id="edge6" class="edge">
<title>24&#45;&#45;74</title>
<path fill="none" stroke="black" d="M264.17,-146.83C276.58,-134.77 294.33,-117.51 306.8,-105.38"/>
</g>
<!-- 912 -->
<g id="node8" class="node">
<title>912</title>
<ellipse fill="none" stroke="black" cx="28.6" cy="-18" rx="28.7" ry="18"/>
<text text-anchor="middle" x="28.6" y="-14.3" font-family="Times,serif" font-size="14.00">912</text>
</g>
<!-- 98&#45;&#45;912 -->
<g id="edge7" class="edge">
<title>98&#45;&#45;912</title>
<path fill="none" stroke="black" d="M88.42,-74.83C75.49,-62.77 57,-45.51 44.01,-33.38"/>
</g>
<!-- 100 -->
<g id="node9" class="node">
<title>100</title>
<ellipse fill="none" stroke="black" cx="103.6" cy="-18" rx="28.7" ry="18"/>
<text text-anchor="middle" x="103.6" y="-14.3" font-family="Times,serif" font-size="14.00">100</text>
</g>
<!-- 98&#45;&#45;100 -->
<g id="edge8" class="edge">
<title>98&#45;&#45;100</title>
<path fill="none" stroke="black" d="M103.6,-71.7C103.6,-60.85 103.6,-46.92 103.6,-36.1"/>
</g>
<!-- 48 -->
<g id="node10" class="node">
<title>48</title>
<ellipse fill="none" stroke="black" cx="177.6" cy="-18" rx="27" ry="18"/>
<text text-anchor="middle" x="177.6" y="-14.3" font-family="Times,serif" font-size="14.00">48</text>
</g>
<!-- 41&#45;&#45;48 -->
<g id="edge9" class="edge">
<title>41&#45;&#45;48</title>
<path fill="none" stroke="black" d="M177.6,-71.7C177.6,-60.85 177.6,-46.92 177.6,-36.1"/>
</g>
<!-- 44 -->
<g id="node11" class="node">
<title>44</title>
<ellipse fill="none" stroke="black" cx="249.6" cy="-18" rx="27" ry="18"/>
<text text-anchor="middle" x="249.6" y="-14.3" font-family="Times,serif" font-size="14.00">44</text>
</g>
<!-- 41&#45;&#45;44 -->
<g id="edge10" class="edge">
<title>41&#45;&#45;44</title>
<path fill="none" stroke="black" d="M192.17,-74.83C204.58,-62.77 222.33,-45.51 234.8,-33.38"/>
</g>
</g>
</svg>
